<svg width="33" height="32" fill="none" xmlns="http://www.w3.org/2000/svg"><path fill-rule="evenodd" clip-rule="evenodd" d="M29.1 4.256a4.212 4.212 0 0 0-5.767-.224 4.212 4.212 0 0 0-5.766.224 4.319 4.319 0 0 0 0 6.044l5.764 5.84.002-.003.002.002L29.1 10.3a4.319 4.319 0 0 0 0-6.044Zm-1.425 4.639-4.34 4.397-.002-.002-.002.002-4.34-4.397a2.308 2.308 0 0 1 0-3.234 2.264 2.264 0 0 1 3.157 0l1.18 1.207.005-.005.005.005 1.181-1.207a2.264 2.264 0 0 1 3.156 0 2.309 2.309 0 0 1 0 3.234ZM16.333 30h-2v-5a3.004 3.004 0 0 0-3-3h-4a3.003 3.003 0 0 0-3 3v5h-2v-5a5.006 5.006 0 0 1 5-5h4a5.006 5.006 0 0 1 5 5v5ZM11 10.506a3 3 0 1 0-3.333 4.988A3 3 0 0 0 11 10.506ZM6.556 8.843a5 5 0 1 1 5.555 8.315 5 5 0 0 1-5.555-8.315Z" fill="#171414"/></svg>