<svg width="92" height="92" fill="none" xmlns="http://www.w3.org/2000/svg"><g clip-path="url(#a)"><path d="M25.494 32.565a1 1 0 1 1-1.415 1.414 1 1 0 0 1 1.415-1.414Zm2.828-4.243a1 1 0 1 0 1.416 1.415 1 1 0 0 0-1.416-1.415Zm4.243-4.242a1 1 0 1 0 1.415 1.414 1 1 0 0 0-1.415-1.414Zm-4.243 12.728a1 1 0 1 0 1.416 1.414 1 1 0 0 0-1.416-1.414Zm4.243-4.243a1 1 0 1 0 1.415 1.414 1 1 0 0 0-1.415-1.414Zm4.243-4.243a1 1 0 1 0 1.415 1.415 1 1 0 0 0-1.415-1.415ZM32.565 41.05a1 1 0 1 0 1.415 1.415 1 1 0 0 0-1.415-1.415Zm4.243-4.242a1 1 0 1 0 1.415 1.414 1 1 0 0 0-1.415-1.414Zm4.242-4.243a1 1 0 1 0 1.416 1.414 1 1 0 0 0-1.416-1.414Zm-16.97 26.87a1 1 0 1 0 1.414-1.415 1 1 0 0 0-1.414 1.415Zm4.242-4.243a1 1 0 1 0 1.415-1.415 1 1 0 0 0-1.415 1.415Zm4.243 4.243a1 1 0 1 0 1.414-1.415 1 1 0 0 0-1.414 1.415Zm-4.243 4.243a1 1 0 1 0 1.415-1.416 1 1 0 0 0-1.415 1.416Zm4.243 4.242a1 1 0 1 0 1.414-1.415 1 1 0 0 0-1.414 1.415Zm4.243-4.242a1 1 0 1 0 1.414-1.416 1 1 0 0 0-1.414 1.416Zm16.97-33.941a1 1 0 1 0 1.414-1.415 1 1 0 0 0-1.414 1.415Zm4.243-4.243a1 1 0 1 0 1.414-1.415 1 1 0 0 0-1.414 1.415Zm4.242 4.242a1 1 0 1 0 1.415-1.414 1 1 0 0 0-1.414 1.415Zm-4.242 4.243a1 1 0 1 0 1.414-1.415 1 1 0 0 0-1.414 1.415Zm4.242 4.243a1 1 0 1 0 1.415-1.416 1 1 0 0 0-1.414 1.416Zm4.243-4.243a1 1 0 1 0 1.414-1.415 1 1 0 0 0-1.414 1.415Zm-16.97 24.042a1 1 0 1 0 1.415 1.414 1 1 0 0 0-1.415-1.414Zm4.242-4.243a1 1 0 1 0 1.416 1.414 1 1 0 0 0-1.416-1.414Zm4.243-4.242a1 1 0 1 0 1.415 1.414 1 1 0 0 0-1.415-1.415Zm4.242 4.242a1 1 0 1 0 1.416 1.414 1 1 0 0 0-1.416-1.414Zm-4.242 4.243a1 1 0 1 0 1.415 1.414 1 1 0 0 0-1.415-1.414Zm-4.243 4.242a1 1 0 1 0 1.416 1.415 1 1 0 0 0-1.416-1.414Zm4.243 4.243a1 1 0 1 0 1.415 1.414 1 1 0 0 0-1.415-1.414Zm4.242-4.242a1 1 0 1 0 1.416 1.414 1 1 0 0 0-1.416-1.414Zm4.243-4.243a1 1 0 1 0 1.415 1.414 1 1 0 0 0-1.415-1.414Zm6.873 4.044L62.065 73.38a4.726 4.726 0 0 1-6.675 0L46 63.99l-9.39 9.39a4.726 4.726 0 0 1-6.675 0L18.62 62.065a4.726 4.726 0 0 1 0-6.675L28.01 46l-9.39-9.39a4.726 4.726 0 0 1 0-6.675L29.935 18.62a4.725 4.725 0 0 1 6.675 0L46 28.01l9.39-9.39a4.725 4.725 0 0 1 6.675 0L73.38 29.935a4.725 4.725 0 0 1 0 6.675L63.99 46l9.39 9.39a4.724 4.724 0 0 1 0 6.675ZM19.64 30.954a3.285 3.285 0 0 0 0 4.638l36.77 36.77a3.284 3.284 0 0 0 4.638 0l11.314-11.314a3.283 3.283 0 0 0 0-4.638l-36.77-36.77a3.283 3.283 0 0 0-4.638 0L19.639 30.953Zm43.332 14.029 9.39-9.39a3.283 3.283 0 0 0 0-4.64L61.047 19.64a3.283 3.283 0 0 0-4.638 0l-9.39 9.39L62.97 44.982ZM19.638 56.407a3.285 3.285 0 0 0 0 4.639L30.95 72.359a3.284 3.284 0 0 0 4.639 0l9.39-9.39-15.952-15.952-9.39 9.39Zm35.356-9.898-8.485 8.485a.72.72 0 1 1-1.018-1.018l8.485-8.485a.72.72 0 1 1 1.019 1.018Zm-4.242-4.242-8.486 8.485a.72.72 0 1 1-1.018-1.019l8.486-8.485a.72.72 0 1 1 1.018 1.019Zm-4.243-4.243-8.485 8.485a.72.72 0 1 1-1.018-1.018l8.485-8.485a.72.72 0 1 1 1.018 1.018Z" fill="#171414"/></g><defs><clipPath id="a"><path fill="#fff" transform="rotate(-45 55.9 22.1)" d="M0 0h64v64H0z"/></clipPath></defs></svg>